<svg width="128" height="128" viewBox="0 0 128 128" fill="none" xmlns="http://www.w3.org/2000/svg">
<g clip-path="url(#clip0_1_24)">
<rect width="128" height="128" fill="#16A84F"/>
<path fill-rule="evenodd" clip-rule="evenodd" d="M116.327 62.4833C116.594 62.6369 116.815 62.8578 116.969 63.124C117.122 63.3901 117.203 63.692 117.203 63.9994C117.203 64.3068 117.122 64.6087 116.969 64.8749C116.815 65.141 116.594 65.362 116.327 65.5155L98.881 75.5885C98.615 75.7421 98.3132 75.823 98.006 75.823C97.6988 75.823 97.3971 75.7421 97.131 75.5885C96.865 75.4349 96.6441 75.214 96.4905 74.948C96.3369 74.682 96.256 74.3802 96.256 74.073V53.927C96.256 53.6198 96.3369 53.318 96.4905 53.052C96.6441 52.786 96.865 52.5651 97.131 52.4115C97.3971 52.2579 97.6988 52.177 98.006 52.177C98.3132 52.177 98.615 52.2579 98.881 52.4115L116.327 62.4845V62.4833Z" fill="white"/>
<path d="M63.5 2C79.8108 2 95.4536 8.47945 106.987 20.0129C118.521 31.5464 125 47.1892 125 63.5C125 79.8108 118.521 95.4536 106.987 106.987C95.4536 118.521 79.8108 125 63.5 125C47.1892 125 31.5464 118.521 20.0129 106.987C8.47945 95.4536 2 79.8108 2 63.5C2 47.1892 8.47945 31.5464 20.0129 20.0129C31.5464 8.47945 47.1892 2 63.5 2ZM63.5 8.47368C48.9061 8.47368 34.91 14.2711 24.5905 24.5905C14.2711 34.91 8.47368 48.9061 8.47368 63.5C8.47368 78.0939 14.2711 92.0901 24.5905 102.409C34.91 112.729 48.9061 118.526 63.5 118.526C70.7262 118.526 77.8816 117.103 84.5577 114.338C91.2338 111.572 97.2998 107.519 102.409 102.409C107.519 97.2998 111.572 91.2338 114.338 84.5577C117.103 77.8816 118.526 70.7262 118.526 63.5C118.526 48.9061 112.729 34.91 102.409 24.5905C92.0901 14.2711 78.0939 8.47368 63.5 8.47368Z" fill="white"/>
<path d="M84.0444 41.1323C83.583 40.4741 82.97 39.9367 82.257 39.5655C81.544 39.1943 80.7521 39.0004 79.9483 39H22.5C21.1744 39.0015 19.9035 39.5288 18.9661 40.4661C18.0288 41.4035 17.5015 42.6744 17.5 44V82.75H23.9191C24.3583 85.2035 25.6464 87.4244 27.5579 89.0241C29.4693 90.6237 31.8825 91.5002 34.375 91.5002C36.8675 91.5002 39.2807 90.6237 41.1921 89.0241C43.1036 87.4244 44.3917 85.2035 44.8309 82.75H63.9191C64.3583 85.2035 65.6464 87.4244 67.5579 89.0241C69.4693 90.6237 71.8825 91.5002 74.375 91.5002C76.8675 91.5002 79.2807 90.6237 81.1921 89.0241C83.1036 87.4244 84.3917 85.2035 84.8309 82.75H92.5V54.3939C92.501 53.6244 92.2643 52.8733 91.8222 52.2434L84.0444 41.1323ZM43.125 44H65.625V59H43.125V44ZM22.5 44H38.125V59H22.5V44ZM34.375 86.5C33.2625 86.5 32.1749 86.1701 31.2499 85.552C30.3249 84.9339 29.6039 84.0554 29.1782 83.0276C28.7524 81.9998 28.641 80.8688 28.8581 79.7776C29.0751 78.6865 29.6109 77.6842 30.3975 76.8975C31.1842 76.1109 32.1865 75.5751 33.2776 75.3581C34.3688 75.141 35.4998 75.2524 36.5276 75.6782C37.5554 76.1039 38.4339 76.8249 39.052 77.7499C39.6701 78.6749 40 79.7625 40 80.875C39.9983 82.3663 39.4052 83.7961 38.3506 84.8506C37.2961 85.9052 35.8663 86.4983 34.375 86.5ZM74.375 86.5C73.2625 86.5 72.1749 86.1701 71.2499 85.552C70.3249 84.9339 69.6039 84.0554 69.1782 83.0276C68.7524 81.9998 68.641 80.8688 68.8581 79.7776C69.0751 78.6865 69.6109 77.6842 70.3975 76.8975C71.1842 76.1109 72.1865 75.5751 73.2776 75.3581C74.3688 75.141 75.4998 75.2524 76.5276 75.6782C77.5554 76.1039 78.4339 76.8249 79.052 77.7499C79.6701 78.6749 80 79.7625 80 80.875C79.9983 82.3663 79.4052 83.7961 78.3506 84.8506C77.2961 85.9052 75.8663 86.4983 74.375 86.5ZM87.5 77.75H84.5303C83.8622 75.5781 82.5153 73.6777 80.6876 72.3277C78.8598 70.9776 76.6473 70.2491 74.375 70.2491C72.1027 70.2491 69.8902 70.9776 68.0624 72.3277C66.2347 73.6777 64.8878 75.5781 64.2197 77.75H44.5303C43.8622 75.5781 42.5153 73.6777 40.6876 72.3277C38.8598 70.9776 36.6473 70.2491 34.375 70.2491C32.1027 70.2491 29.8902 70.9776 28.0624 72.3277C26.2347 73.6777 24.8878 75.5781 24.2197 77.75H22.5V64H87.5V77.75ZM87.5 59H70.625V44H79.9483L87.5 54.788V59Z" fill="white"/>
</g>
<defs>
<clipPath id="clip0_1_24">
<rect width="128" height="128" fill="white"/>
</clipPath>
</defs>
</svg>
